<svg xmlns="http://www.w3.org/2000/svg" width="1725.48" height="262.8" viewBox="0 0 1725.48 262.8">
  <path id="Path_9" data-name="Path 9" d="M101.04,360h69.84a3.227,3.227,0,0,0,3.24-3.24v-3.6a3.136,3.136,0,0,0-2.16-2.88c-14.76-4.32-19.44-9.36-19.44-26.64V247.68h27c17.64,0,24.12,13.68,28.44,28.44a2.851,2.851,0,0,0,2.88,1.8H213a2.65,2.65,0,0,0,2.88-2.88v-77.4a2.65,2.65,0,0,0-2.88-2.88h-2.16a2.738,2.738,0,0,0-2.88,2.16c-4.32,14.4-10.8,28.08-28.44,28.08h-27V144.72c.36-9.72,2.16-14.04,12.96-14.04H182.4c24.12,0,39.96,20.16,49.32,47.88a3.46,3.46,0,0,0,3.24,2.16h3.24c1.8,0,2.52-1.44,2.16-3.6L230.28,113.4a6.186,6.186,0,0,0-6.12-5.4H101.04a2.839,2.839,0,0,0-2.88,2.88v3.96a3.016,3.016,0,0,0,2.16,2.88c10.8,3.24,12.6,6.84,12.96,15.84V334.08c-.36,9-2.16,12.96-12.96,16.2a2.738,2.738,0,0,0-2.16,2.88v3.6A2.94,2.94,0,0,0,101.04,360Zm158.04,0H322.8a3.227,3.227,0,0,0,3.24-3.24v-3.6a3.136,3.136,0,0,0-2.16-2.88c-11.16-3.24-12.96-7.2-12.96-16.2V133.56c0-9,1.8-12.6,12.96-15.84a3.576,3.576,0,0,0,2.16-2.88v-3.96A3.174,3.174,0,0,0,322.8,108H259.08a2.839,2.839,0,0,0-2.88,2.88v3.96a3.016,3.016,0,0,0,2.16,2.88c10.8,3.24,12.6,6.84,12.96,15.84V334.08c-.36,9-2.16,12.96-12.96,16.2a2.738,2.738,0,0,0-2.16,2.88v3.6A2.94,2.94,0,0,0,259.08,360Zm87.48,0h64.08a3.174,3.174,0,0,0,2.88-3.24v-3.6a2.737,2.737,0,0,0-2.16-2.88c-10.8-3.24-12.6-7.2-12.96-16.2V248.76h25.92l72.36,106.92A9.893,9.893,0,0,0,504.6,360h46.08a3.174,3.174,0,0,0,2.88-3.24v-3.6a2.738,2.738,0,0,0-2.16-2.88c-11.88-3.6-16.2-8.28-23.04-18l-62.64-90.36c27.72-9.72,46.44-30.6,46.44-63.72,0-48.24-39.96-70.2-91.44-70.2H346.56a2.839,2.839,0,0,0-2.88,2.88v3.96a3.016,3.016,0,0,0,2.16,2.88c10.8,3.24,12.96,6.84,12.96,15.84V334.08c0,9-2.16,12.96-12.96,16.2a2.738,2.738,0,0,0-2.16,2.88v3.6A3.174,3.174,0,0,0,346.56,360ZM398.4,212.04V144.72c.36-9.72,2.16-14.04,12.96-14.04h4.68c31.68,0,55.44,17.64,55.44,47.52,0,30.24-23.76,47.88-55.44,47.88h-4.68C400.56,226.08,398.76,221.76,398.4,212.04ZM638.52,365.4c45.72,0,76.68-24.48,76.68-71.28,0-79.92-115.2-88.2-115.2-139.32,0-16.56,12.24-34.56,36-33.48,27.36,1.44,51.48,32.04,59.4,59.4,1.08,3.6,1.08,5.76,3.24,5.76h4.32c1.8,0,2.16-1.44,2.16-5.4-.72-19.08-1.08-32.76-2.52-58.32-.36-3.24-1.44-6.84-4.32-8.64-10.8-7.56-34.2-11.52-52.92-11.52-46.08,0-78.12,28.44-78.12,65.88,0,83.52,121.32,77.76,111.6,149.04-2.88,19.8-18,29.52-39.6,28.08-37.8-2.52-61.56-42.84-67.32-78.48-.36-2.88-1.08-4.32-3.6-4.32H565.8c-2.52,0-3.96,1.44-3.6,5.4.36,23.04,2.16,54.72,3.24,68.76.36,3.24,2.88,6.48,5.76,8.64C585.24,356.04,609,365.4,638.52,365.4Zm149.4-5.4h63.72a2.94,2.94,0,0,0,2.88-3.24v-3.6a2.851,2.851,0,0,0-1.8-2.88c-11.16-3.24-12.96-7.2-13.32-16.2V144.72c.36-9.72,2.16-14.04,12.96-14.04h5.04c24.12,0,36.36,20.16,46.08,47.88a3.646,3.646,0,0,0,3.24,2.16h2.88c2.16,0,2.52-1.44,2.16-3.6l-6.84-63.72a6.186,6.186,0,0,0-6.12-5.4H740.76a5.935,5.935,0,0,0-6.12,5.4l-7.2,63.72c-.36,2.16.36,3.6,2.16,3.6h3.24a3.646,3.646,0,0,0,3.24-2.16c9.72-27.72,21.96-47.88,46.08-47.88h5.04c10.8,0,12.6,4.32,12.96,14.04V334.08c-.36,9-2.16,12.96-13.32,16.2a3.136,3.136,0,0,0-2.16,2.88v3.6A3.226,3.226,0,0,0,787.92,360Zm298.8,0h63.72a2.94,2.94,0,0,0,2.88-3.24v-3.6a2.851,2.851,0,0,0-1.8-2.88c-11.16-3.24-12.96-7.2-13.32-16.2V144.72c.36-9.72,2.16-14.04,12.96-14.04h5.04c24.12,0,36.36,20.16,46.08,47.88a3.646,3.646,0,0,0,3.24,2.16h2.88c2.16,0,2.52-1.44,2.16-3.6l-6.84-63.72a6.186,6.186,0,0,0-6.12-5.4H1039.56a5.935,5.935,0,0,0-6.12,5.4l-7.2,63.72c-.36,2.16.36,3.6,2.16,3.6h3.24a3.646,3.646,0,0,0,3.24-2.16c9.72-27.72,21.96-47.88,46.08-47.88H1086c10.8,0,12.6,4.32,12.96,14.04V334.08c-.36,9-2.16,12.96-13.32,16.2a3.136,3.136,0,0,0-2.16,2.88v3.6A3.227,3.227,0,0,0,1086.72,360Zm142.56,0H1293a3.226,3.226,0,0,0,3.24-3.24v-3.6a3.136,3.136,0,0,0-2.16-2.88c-11.16-3.24-12.96-7.2-12.96-16.2V133.56c0-9,1.8-12.6,12.96-15.84a3.576,3.576,0,0,0,2.16-2.88v-3.96A3.174,3.174,0,0,0,1293,108h-63.72a2.839,2.839,0,0,0-2.88,2.88v3.96a3.016,3.016,0,0,0,2.16,2.88c10.8,3.24,12.6,6.84,12.96,15.84V334.08c-.36,9-2.16,12.96-12.96,16.2a2.737,2.737,0,0,0-2.16,2.88v3.6A2.94,2.94,0,0,0,1229.28,360Zm210.6,2.16c4.68,0,6.12-2.88,7.56-6.12,2.16-3.96,67.32-164.88,67.32-164.88l24.12,135.72c2.52,15.12,1.8,19.44-11.52,23.4a2.737,2.737,0,0,0-2.16,2.88v3.6a2.94,2.94,0,0,0,2.88,3.24h66.24a3.174,3.174,0,0,0,2.88-3.24v-3.6a2.738,2.738,0,0,0-2.16-2.88c-12.24-4.32-15.48-10.44-18.72-26.64,0,0-38.16-204.48-39.24-209.16-1.8-5.76-4.32-9-8.28-9-4.68,0-6.48,2.52-9.36,9.72l-73.8,186.12s-73.08-182.16-75.24-186.84c-2.16-5.4-5.04-9-9.36-9-3.24,0-6.48,2.16-7.92,9.72-1.08,5.4-21.96,141.84-32.04,208.44-2.88,18.36-5.04,22.68-17.64,26.64a2.737,2.737,0,0,0-2.16,2.88v3.6a3.174,3.174,0,0,0,2.88,3.24h52.56a2.94,2.94,0,0,0,2.88-3.24v-3.6a2.851,2.851,0,0,0-1.8-2.88c-14.4-4.32-16.56-10.8-14.04-26.64l20.52-132.48s65.16,160.2,67.32,164.16C1433.4,358.92,1435.92,362.16,1439.88,362.16ZM1612.32,360h135.36a6.222,6.222,0,0,0,6.12-5.4l10.08-64.08c.36-2.16-.36-3.6-2.52-3.6h-2.88c-1.44,0-2.52,1.08-3.24,2.52-9.36,27.72-25.2,47.88-49.32,47.88h-28.8c-10.8,0-12.6-4.68-12.96-14.04V241.56h32.76c17.64,0,24.12,13.68,28.44,28.44a3.136,3.136,0,0,0,2.88,2.16h2.16a3.226,3.226,0,0,0,3.24-3.24v-77.4a3.174,3.174,0,0,0-3.24-2.88h-2.16a2.737,2.737,0,0,0-2.88,2.16c-4.32,14.4-10.8,28.08-28.44,28.08h-32.76V144.72c.36-9.72,2.16-14.04,12.96-14.04h19.8c24.12,0,39.6,20.16,49.32,47.88a3.149,3.149,0,0,0,3.24,2.16h3.24c1.8,0,2.16-1.44,2.16-3.6L1744.8,113.4a6.286,6.286,0,0,0-6.48-5.4h-126a3.1,3.1,0,0,0-2.88,2.88v3.96a3.016,3.016,0,0,0,2.16,2.88c10.8,3.24,12.6,6.84,12.96,15.84V334.08c-.36,9-2.16,12.96-12.96,16.2a2.737,2.737,0,0,0-2.16,2.88v3.6A3.174,3.174,0,0,0,1612.32,360Zm189.36,5.4a21.818,21.818,0,0,0,21.96-21.96,21.963,21.963,0,1,0-43.92,0A21.818,21.818,0,0,0,1801.68,365.4Z" transform="translate(-98.16 -102.6)" fill="#faf3e4"/>
</svg>
