<svg xmlns="http://www.w3.org/2000/svg" width="575.12" height="243.92" viewBox="0 0 575.12 243.92">
  <path id="Path_11" data-name="Path 11" d="M2.392,104H22.568a.932.932,0,0,0,.936-.936v-1.04a.906.906,0,0,0-.624-.832c-4.264-1.248-5.616-2.7-5.616-7.7V71.552h7.8c5.1,0,6.968,3.952,8.216,8.216a.823.823,0,0,0,.832.52h.624a.765.765,0,0,0,.832-.832V57.1a.765.765,0,0,0-.832-.832h-.624a.791.791,0,0,0-.832.624C32.032,61.048,30.16,65,25.064,65h-7.8V41.808c.1-2.808.624-4.056,3.744-4.056H25.9c6.968,0,11.544,5.824,14.248,13.832a1,1,0,0,0,.936.624h.936c.52,0,.728-.416.624-1.04L39.728,32.76A1.787,1.787,0,0,0,37.96,31.2H2.392a.82.82,0,0,0-.832.832v1.144a.871.871,0,0,0,.624.832c3.12.936,3.64,1.976,3.744,4.576V96.512c-.1,2.6-.624,3.744-3.744,4.68a.791.791,0,0,0-.624.832v1.04A.849.849,0,0,0,2.392,104Zm75.816,1.56c17.472,0,21.008-15.08,21.008-22.672v-44.3c.1-2.6.624-3.64,3.848-4.576a1.033,1.033,0,0,0,.624-.832V32.032a.849.849,0,0,0-.936-.832H89.232a.849.849,0,0,0-.936.832v1.144a1.033,1.033,0,0,0,.624.832c3.224.936,3.744,1.976,3.744,4.576v44.3c0,7.488-3.744,14.872-13.624,14.872-9.152,0-13.936-6.032-13.936-15.6V38.584c.1-2.6.624-3.64,3.744-4.576a.871.871,0,0,0,.624-.832V32.032a.82.82,0,0,0-.832-.832H50.128a.82.82,0,0,0-.832.832v1.144a.871.871,0,0,0,.624.832c3.12.936,3.744,1.976,3.744,4.576V82.368C53.664,92.664,60.216,105.56,78.208,105.56Zm71.552,0c9.568,0,15.912-1.976,21.424-5.512a2.15,2.15,0,0,0,1.04-1.456c.312-4.264,1.56-14.56,1.664-15.184.1-.52-.312-.728-.728-.728h-.832a.782.782,0,0,0-.728.52c-3.536,8.008-8.528,17.056-21.84,17.056-16.12,0-27.664-14.144-27.664-32.656,0-18.616,10.608-32.656,26.728-32.656,11.024,0,17.888,9.776,21.424,17.888a.782.782,0,0,0,.728.52h.936c.416,0,.728-.208.624-.832,0-.52-1.04-10.5-1.56-15.392a3.214,3.214,0,0,0-1.56-2.288c-5.512-3.432-13.312-5.2-20.592-5.2-22.776,0-39,15.184-39,37.96S126.88,105.56,149.76,105.56ZM181.376,104h18.512a.917.917,0,0,0,.832-.936v-1.04a.906.906,0,0,0-.624-.832c-3.224-.936-3.744-2.08-3.744-4.68v-18.1l8.736-10.088L228.8,102.752A2.826,2.826,0,0,0,230.984,104h13.728a.917.917,0,0,0,.832-.936v-1.04a.906.906,0,0,0-.624-.832c-3.432-1.04-4.68-2.392-6.656-5.2l-25.376-36.5L230.36,39.312c2.5-2.7,4.16-4.368,7.592-5.3a1.033,1.033,0,0,0,.624-.832V32.032a.917.917,0,0,0-.936-.832H222.352a.82.82,0,0,0-.832.832v1.144a.926.926,0,0,0,.52.832c4.264,1.248,2.808,3.328-.52,7.176L196.352,68.848V38.584c0-2.6.52-3.64,3.744-4.576a1.033,1.033,0,0,0,.624-.832V32.032a.9.9,0,0,0-.832-.832H181.376a.9.9,0,0,0-.832.832v1.144a.871.871,0,0,0,.624.832c3.12.936,3.64,1.976,3.744,4.576V96.512c-.1,2.6-.624,3.744-3.744,4.68a.791.791,0,0,0-.624.832v1.04A.917.917,0,0,0,181.376,104Zm72.28,11.336.1.1a1.789,1.789,0,0,0,2.5-.1c3.224-3.224,7.176-8.424,7.176-16.12a6.392,6.392,0,0,0-6.344-6.448,6.4,6.4,0,0,0-.208,12.792,17.727,17.727,0,0,1-3.328,7.488A1.744,1.744,0,0,0,253.656,115.336ZM.936,188H16.744a.917.917,0,0,0,.832-.936v-1.04a.906.906,0,0,0-.624-.832c-4.16-1.248-4.368-3.224-2.5-7.592l5.1-12.584H47.528l5.408,12.48c2.08,4.992,1.768,6.448-2.5,7.7a.823.823,0,0,0-.52.832v1.04a.849.849,0,0,0,.832.936H71.136a.917.917,0,0,0,.832-.936v-1.04a.791.791,0,0,0-.624-.832c-3.224-1.144-4.264-2.7-6.032-6.344-8.424-18.928-26.936-60.528-27.56-61.776-.728-1.56-1.248-2.6-2.6-2.6-1.456,0-1.872.728-2.7,2.808-.728,1.56-18.616,43.784-26.416,62.192-1.456,3.328-2.288,4.68-5.408,5.72a.906.906,0,0,0-.624.832v1.04A.932.932,0,0,0,.936,188Zm21.32-29.536,10.92-26.832L44.72,158.464Zm113.984,30.16a1.722,1.722,0,0,0,1.872-1.976V122.584c0-2.6.624-3.64,3.744-4.576a.871.871,0,0,0,.624-.832v-1.144a.82.82,0,0,0-.832-.832H128.024a.765.765,0,0,0-.832.832v1.144a.926.926,0,0,0,.52.832c3.224.936,3.744,1.976,3.848,4.576v44.824l-40.976-50.96a3.354,3.354,0,0,0-2.7-1.248H78.416a.765.765,0,0,0-.832.832v1.144a.926.926,0,0,0,.52.832c3.224.936,3.744,1.976,3.848,4.576v57.928c-.1,2.6-.624,3.744-3.848,4.68a.823.823,0,0,0-.52.832v1.04a.849.849,0,0,0,.832.936H92.04a.917.917,0,0,0,.832-.936v-1.04a.791.791,0,0,0-.624-.832c-3.12-.936-3.64-2.08-3.744-4.68v-47.32l45.032,54.08A3.169,3.169,0,0,0,136.24,188.624Zm51.376.936c21.632,0,39-15.912,39-37.96,0-22.152-17.368-37.96-39-37.96s-39,15.808-39,37.96C148.616,173.648,165.984,189.56,187.616,189.56ZM160.784,151.6c0-18.616,10.816-32.656,26.832-32.656s26.832,14.04,26.832,32.656-10.816,32.656-26.832,32.656S160.784,170.216,160.784,151.6Zm89.44,36.4h18.408a.849.849,0,0,0,.832-.936v-1.04a.823.823,0,0,0-.52-.832c-3.224-.936-3.744-2.08-3.848-4.68v-54.7c.1-2.808.624-4.056,3.744-4.056H270.3c6.968,0,10.5,5.824,13.312,13.832a1.053,1.053,0,0,0,.936.624h.832c.624,0,.728-.416.624-1.04l-1.976-18.408a1.787,1.787,0,0,0-1.768-1.56H236.6a1.715,1.715,0,0,0-1.768,1.56l-2.08,18.408c-.1.624.1,1.04.624,1.04h.936a1.053,1.053,0,0,0,.936-.624c2.808-8.008,6.344-13.832,13.312-13.832h1.456c3.12,0,3.64,1.248,3.744,4.056v54.7c-.1,2.6-.624,3.744-3.848,4.68a.906.906,0,0,0-.624.832v1.04A.932.932,0,0,0,250.224,188Zm43.264,0H312a.917.917,0,0,0,.832-.936v-1.04a.791.791,0,0,0-.624-.832c-3.12-.936-3.64-2.08-3.744-4.68V153.264h22.152v27.248c-.1,2.6-.624,3.744-3.744,4.68a.791.791,0,0,0-.624.832v1.04a.917.917,0,0,0,.832.936h18.408a.932.932,0,0,0,.936-.936v-1.04a.906.906,0,0,0-.624-.832c-3.224-.936-3.744-2.08-3.744-4.68V122.584c0-2.6.52-3.64,3.744-4.576a1.033,1.033,0,0,0,.624-.832v-1.144a.917.917,0,0,0-.936-.832H327.08a.9.9,0,0,0-.832.832v1.144a.871.871,0,0,0,.624.832c3.12.936,3.64,1.976,3.744,4.576v24.128H308.464V122.584c.1-2.6.624-3.64,3.744-4.576a.871.871,0,0,0,.624-.832v-1.144A.9.9,0,0,0,312,115.2H293.488a.9.9,0,0,0-.832.832v1.144a.871.871,0,0,0,.624.832c3.12.936,3.744,1.976,3.744,4.576v57.928c0,2.6-.624,3.744-3.744,4.68a.791.791,0,0,0-.624.832v1.04A.917.917,0,0,0,293.488,188Zm60.944,0h39.1a1.8,1.8,0,0,0,1.768-1.56l2.912-18.512c.1-.624-.1-1.04-.728-1.04h-.832a1.11,1.11,0,0,0-.936.728c-2.7,8.008-7.28,13.832-14.248,13.832h-8.32c-3.12,0-3.64-1.352-3.744-4.056V153.784h9.464c5.1,0,6.968,3.952,8.216,8.216a.906.906,0,0,0,.832.624h.624a.932.932,0,0,0,.936-.936v-22.36a.917.917,0,0,0-.936-.832h-.624a.791.791,0,0,0-.832.624c-1.248,4.16-3.12,8.112-8.216,8.112h-9.464V125.808c.1-2.808.624-4.056,3.744-4.056h5.72c6.968,0,11.44,5.824,14.248,13.832a.91.91,0,0,0,.936.624h.936c.52,0,.624-.416.624-1.04L392.7,116.76a1.816,1.816,0,0,0-1.872-1.56h-36.4a.9.9,0,0,0-.832.832v1.144a.871.871,0,0,0,.624.832c3.12.936,3.64,1.976,3.744,4.576v57.928c-.1,2.6-.624,3.744-3.744,4.68a.791.791,0,0,0-.624.832v1.04A.917.917,0,0,0,354.432,188Zm50.752,0H423.7a.917.917,0,0,0,.832-.936v-1.04a.791.791,0,0,0-.624-.832c-3.12-.936-3.64-2.08-3.744-4.68V155.864h7.488l20.9,30.888A2.858,2.858,0,0,0,450.84,188h13.312a.917.917,0,0,0,.832-.936v-1.04a.791.791,0,0,0-.624-.832c-3.432-1.04-4.68-2.392-6.656-5.2l-18.1-26.1c8.008-2.808,13.416-8.84,13.416-18.408,0-13.936-11.544-20.28-26.416-20.28H405.184a.82.82,0,0,0-.832.832v1.144a.871.871,0,0,0,.624.832c3.12.936,3.744,1.976,3.744,4.576v57.928c0,2.6-.624,3.744-3.744,4.68a.791.791,0,0,0-.624.832v1.04A.917.917,0,0,0,405.184,188Zm14.976-42.744V125.808c.1-2.808.624-4.056,3.744-4.056h1.352c9.152,0,16.016,5.1,16.016,13.728,0,8.736-6.864,13.832-16.016,13.832H423.9C420.784,149.312,420.264,148.064,420.16,145.256ZM40.04,272.624c1.352,0,1.768-.832,2.184-1.768.624-1.144,19.448-47.632,19.448-47.632l6.968,39.208c.728,4.368.52,5.616-3.328,6.76a.791.791,0,0,0-.624.832v1.04a.849.849,0,0,0,.832.936H84.656a.917.917,0,0,0,.832-.936v-1.04a.791.791,0,0,0-.624-.832c-3.536-1.248-4.472-3.016-5.408-7.7,0,0-11.024-59.072-11.336-60.424-.52-1.664-1.248-2.6-2.392-2.6-1.352,0-1.872.728-2.7,2.808L41.7,255.048s-21.112-52.624-21.736-53.976c-.624-1.56-1.456-2.6-2.7-2.6-.936,0-1.872.624-2.288,2.808-.312,1.56-6.344,40.976-9.256,60.216-.832,5.3-1.456,6.552-5.1,7.7a.791.791,0,0,0-.624.832v1.04A.917.917,0,0,0,.832,272H16.016a.849.849,0,0,0,.832-.936v-1.04a.824.824,0,0,0-.52-.832c-4.16-1.248-4.784-3.12-4.056-7.7L18.2,223.224s18.824,46.28,19.448,47.424C38.168,271.688,38.9,272.624,40.04,272.624Zm51.9-.624h39.1a1.8,1.8,0,0,0,1.768-1.56l2.912-18.512c.1-.624-.1-1.04-.728-1.04h-.832a1.11,1.11,0,0,0-.936.728c-2.7,8.008-7.28,13.832-14.248,13.832h-8.32c-3.12,0-3.64-1.352-3.744-4.056V237.784h9.464c5.1,0,6.968,3.952,8.216,8.216a.906.906,0,0,0,.832.624h.624a.932.932,0,0,0,.936-.936v-22.36a.917.917,0,0,0-.936-.832h-.624a.791.791,0,0,0-.832.624c-1.248,4.16-3.12,8.112-8.216,8.112h-9.464V209.808c.1-2.808.624-4.056,3.744-4.056h5.72c6.968,0,11.44,5.824,14.248,13.832a.91.91,0,0,0,.936.624h.936c.52,0,.624-.416.624-1.04l-2.912-18.408a1.816,1.816,0,0,0-1.872-1.56h-36.4a.9.9,0,0,0-.832.832v1.144a.871.871,0,0,0,.624.832c3.12.936,3.64,1.976,3.744,4.576v57.928c-.1,2.6-.624,3.744-3.744,4.68a.791.791,0,0,0-.624.832v1.04A.917.917,0,0,0,91.936,272Zm87.88.624c1.352,0,1.768-.832,2.184-1.768.624-1.144,19.448-47.632,19.448-47.632l6.968,39.208c.728,4.368.52,5.616-3.328,6.76a.791.791,0,0,0-.624.832v1.04a.849.849,0,0,0,.832.936h19.136a.917.917,0,0,0,.832-.936v-1.04a.791.791,0,0,0-.624-.832c-3.536-1.248-4.472-3.016-5.408-7.7,0,0-11.024-59.072-11.336-60.424-.52-1.664-1.248-2.6-2.392-2.6-1.352,0-1.872.728-2.7,2.808l-21.32,53.768s-21.112-52.624-21.736-53.976c-.624-1.56-1.456-2.6-2.7-2.6-.936,0-1.872.624-2.288,2.808-.312,1.56-6.344,40.976-9.256,60.216-.832,5.3-1.456,6.552-5.1,7.7a.791.791,0,0,0-.624.832v1.04a.917.917,0,0,0,.832.936h15.184a.849.849,0,0,0,.832-.936v-1.04a.824.824,0,0,0-.52-.832c-4.16-1.248-4.784-3.12-4.056-7.7l5.928-38.272s18.824,46.28,19.448,47.424C177.944,271.688,178.672,272.624,179.816,272.624Zm51.9-.624h39.1a1.8,1.8,0,0,0,1.768-1.56l2.912-18.512c.1-.624-.1-1.04-.728-1.04h-.832a1.11,1.11,0,0,0-.936.728c-2.7,8.008-7.28,13.832-14.248,13.832h-8.32c-3.12,0-3.64-1.352-3.744-4.056V237.784h9.464c5.1,0,6.968,3.952,8.216,8.216a.906.906,0,0,0,.832.624h.624a.932.932,0,0,0,.936-.936v-22.36a.917.917,0,0,0-.936-.832H265.2a.791.791,0,0,0-.832.624c-1.248,4.16-3.12,8.112-8.216,8.112h-9.464V209.808c.1-2.808.624-4.056,3.744-4.056h5.72c6.968,0,11.44,5.824,14.248,13.832a.91.91,0,0,0,.936.624h.936c.52,0,.624-.416.624-1.04l-2.912-18.408a1.816,1.816,0,0,0-1.872-1.56h-36.4a.9.9,0,0,0-.832.832v1.144a.871.871,0,0,0,.624.832c3.12.936,3.64,1.976,3.744,4.576v57.928c-.1,2.6-.624,3.744-3.744,4.68a.791.791,0,0,0-.624.832v1.04A.917.917,0,0,0,231.712,272Zm88.816,1.56c9.568,0,15.912-1.976,21.424-5.512a2.15,2.15,0,0,0,1.04-1.456c.312-4.264,1.56-14.56,1.664-15.184.1-.52-.312-.728-.728-.728H343.1a.782.782,0,0,0-.728.52c-3.536,8.008-8.528,17.056-21.84,17.056-16.12,0-27.664-14.144-27.664-32.656,0-18.616,10.608-32.656,26.728-32.656,11.024,0,17.888,9.776,21.424,17.888a.782.782,0,0,0,.728.52h.936c.416,0,.728-.208.624-.832,0-.52-1.04-10.5-1.56-15.392a3.214,3.214,0,0,0-1.56-2.288c-5.512-3.432-13.312-5.2-20.592-5.2-22.776,0-39,15.184-39,37.96S297.648,273.56,320.528,273.56Zm69.784,0c21.632,0,39-15.912,39-37.96,0-22.152-17.368-37.96-39-37.96s-39,15.808-39,37.96C351.312,257.648,368.68,273.56,390.312,273.56ZM363.48,235.6c0-18.616,10.816-32.656,26.832-32.656s26.832,14.04,26.832,32.656-10.816,32.656-26.832,32.656S363.48,254.216,363.48,235.6Zm72.8,36.4h18.408a.932.932,0,0,0,.936-.936v-1.04a.906.906,0,0,0-.624-.832c-3.224-.936-3.744-2.08-3.744-4.68V206.584c0-2.6.52-3.64,3.744-4.576a1.033,1.033,0,0,0,.624-.832v-1.144a.917.917,0,0,0-.936-.832H436.28a.82.82,0,0,0-.832.832v1.144a.871.871,0,0,0,.624.832c3.12.936,3.64,1.976,3.744,4.576v57.928c-.1,2.6-.624,3.744-3.744,4.68a.791.791,0,0,0-.624.832v1.04A.849.849,0,0,0,436.28,272Zm85.176.624a1.722,1.722,0,0,0,1.872-1.976V206.584c0-2.6.624-3.64,3.744-4.576a.871.871,0,0,0,.624-.832v-1.144a.82.82,0,0,0-.832-.832H513.24a.765.765,0,0,0-.832.832v1.144a.926.926,0,0,0,.52.832c3.224.936,3.744,1.976,3.848,4.576v44.824L475.8,200.448a3.354,3.354,0,0,0-2.7-1.248h-9.464a.765.765,0,0,0-.832.832v1.144a.926.926,0,0,0,.52.832c3.224.936,3.744,1.976,3.848,4.576v57.928c-.1,2.6-.624,3.744-3.848,4.68a.824.824,0,0,0-.52.832v1.04a.849.849,0,0,0,.832.936h13.624a.917.917,0,0,0,.832-.936v-1.04a.791.791,0,0,0-.624-.832c-3.12-.936-3.64-2.08-3.744-4.68v-47.32l45.032,54.08A3.169,3.169,0,0,0,521.456,272.624Zm26.416-15.7h1.976a1.864,1.864,0,0,0,1.872-1.872V240.384c12.9-1.456,23.4-9.36,23.4-22.776,0-10.3-8.216-19.968-21.216-19.968-11.024,0-16.432,6.864-18.512,9.464-.728.936-1.456,1.872-.832,2.6a8.288,8.288,0,0,0,1.352,1.352c.832.728,1.352.624,1.768,0,1.976-2.808,5.928-7.9,13.208-7.9,8.528,0,13,7.7,13,15.288,0,10.4-5.3,17.992-16.536,17.992-1.04,0-1.352.936-1.352,1.976v16.64A1.864,1.864,0,0,0,547.872,256.92Zm-5.408,10.3a6.392,6.392,0,0,0,6.448,6.344,6.3,6.3,0,0,0,6.344-6.344,6.392,6.392,0,0,0-6.344-6.448A6.48,6.48,0,0,0,542.464,267.216Z" transform="translate(0 -29.64)" fill="#faf3e4"/>
</svg>
