<svg xmlns="http://www.w3.org/2000/svg" width="1833.12" height="262.8" viewBox="0 0 1833.12 262.8">
  <path id="Path_10" data-name="Path 10" d="M47.22,360H176.46a6.916,6.916,0,0,0,6.48-5.4l9.72-64.08c.36-2.16-.36-3.6-2.52-3.6h-2.88a3.055,3.055,0,0,0-2.88,2.52c-9.72,27.72-25.2,47.88-49.68,47.88H112.02c-9.72,0-12.24-3.6-12.96-11.16V133.56c.36-9,2.16-12.6,12.96-15.84a3.016,3.016,0,0,0,2.16-2.88v-3.96A3.1,3.1,0,0,0,111.3,108H47.22a3.1,3.1,0,0,0-2.88,2.88v3.96a3.016,3.016,0,0,0,2.16,2.88c10.8,3.24,12.96,6.84,12.96,15.84V334.08c0,9-2.16,12.96-12.96,16.2a2.738,2.738,0,0,0-2.16,2.88v3.6A3.174,3.174,0,0,0,47.22,360Zm292.68,5.4c74.88,0,135-55.08,135-131.4,0-76.68-60.12-131.4-135-131.4s-135,54.72-135,131.4C204.9,310.32,265.02,365.4,339.9,365.4ZM247.02,234c0-64.44,37.44-113.04,92.88-113.04s92.88,48.6,92.88,113.04S395.34,347.04,339.9,347.04,247.02,298.44,247.02,234ZM691.98,362.16c3.24,0,6.48-1.44,6.48-6.84V133.56c0-9,2.16-12.6,12.96-15.84a3.016,3.016,0,0,0,2.16-2.88v-3.96A2.839,2.839,0,0,0,710.7,108H663.54a2.65,2.65,0,0,0-2.88,2.88v3.96a3.206,3.206,0,0,0,1.8,2.88c11.16,3.24,12.96,6.84,13.32,15.84V288.72L533.94,112.32a11.61,11.61,0,0,0-9.36-4.32H491.82a2.65,2.65,0,0,0-2.88,2.88v3.96a3.206,3.206,0,0,0,1.8,2.88c11.16,3.24,12.96,6.84,13.32,15.84V334.08c-.36,9-2.16,12.96-13.32,16.2a2.851,2.851,0,0,0-1.8,2.88v3.6a2.94,2.94,0,0,0,2.88,3.24h47.16a3.174,3.174,0,0,0,2.88-3.24v-3.6a2.737,2.737,0,0,0-2.16-2.88c-10.8-3.24-12.6-7.2-12.96-16.2V170.28l155.88,187.2A10.969,10.969,0,0,0,691.98,362.16Zm173.88,3.24c36.72,0,63.36-11.88,82.8-24.12,2.88-1.8,3.6-4.32,3.6-7.92V261.72c.36-9,2.16-12.6,12.96-15.84a3.016,3.016,0,0,0,2.16-2.88v-3.96a2.65,2.65,0,0,0-2.88-2.88H897.54a2.839,2.839,0,0,0-2.88,2.88V243a3.016,3.016,0,0,0,2.16,2.88c14.4,4.32,16.2,9.36,16.2,26.64V331.2c-11.52,9.36-26.28,15.84-47.16,15.84-56.16,0-96.12-48.96-96.12-113.04,0-64.44,36.72-113.04,92.88-113.04,38.16,0,61.92,33.84,73.8,61.92a2.851,2.851,0,0,0,2.88,1.8h3.24c1.44,0,2.16-.72,2.16-2.88-.36-1.8-3.96-36.36-5.76-53.28a11.126,11.126,0,0,0-5.4-7.92c-18.72-11.88-46.08-18-70.92-18-79.2,0-135,52.56-135,131.4S786.66,365.4,865.86,365.4Zm274.68-5.4h63.72a2.94,2.94,0,0,0,2.88-3.24v-3.6a2.851,2.851,0,0,0-1.8-2.88c-11.16-3.24-12.96-7.2-13.32-16.2V144.72c.36-9.72,2.16-14.04,12.96-14.04h5.04c24.12,0,36.36,20.16,46.08,47.88a3.646,3.646,0,0,0,3.24,2.16h2.88c2.16,0,2.52-1.44,2.16-3.6l-6.84-63.72a6.186,6.186,0,0,0-6.12-5.4H1093.38a5.935,5.935,0,0,0-6.12,5.4l-7.2,63.72c-.36,2.16.36,3.6,2.16,3.6h3.24a3.646,3.646,0,0,0,3.24-2.16c9.72-27.72,21.96-47.88,46.08-47.88h5.04c10.8,0,12.6,4.32,12.96,14.04V334.08c-.36,9-2.16,12.96-13.32,16.2a3.136,3.136,0,0,0-2.16,2.88v3.6A3.227,3.227,0,0,0,1140.54,360Zm142.56,0h63.72a3.226,3.226,0,0,0,3.24-3.24v-3.6a3.136,3.136,0,0,0-2.16-2.88c-11.16-3.24-12.96-7.2-12.96-16.2V133.56c0-9,1.8-12.6,12.96-15.84a3.576,3.576,0,0,0,2.16-2.88v-3.96a3.174,3.174,0,0,0-3.24-2.88H1283.1a2.839,2.839,0,0,0-2.88,2.88v3.96a3.016,3.016,0,0,0,2.16,2.88c10.8,3.24,12.6,6.84,12.96,15.84V334.08c-.36,9-2.16,12.96-12.96,16.2a2.737,2.737,0,0,0-2.16,2.88v3.6A2.94,2.94,0,0,0,1283.1,360Zm210.6,2.16c4.68,0,6.12-2.88,7.56-6.12,2.16-3.96,67.32-164.88,67.32-164.88l24.12,135.72c2.52,15.12,1.8,19.44-11.52,23.4a2.737,2.737,0,0,0-2.16,2.88v3.6a2.94,2.94,0,0,0,2.88,3.24h66.24a3.174,3.174,0,0,0,2.88-3.24v-3.6a2.738,2.738,0,0,0-2.16-2.88c-12.24-4.32-15.48-10.44-18.72-26.64,0,0-38.16-204.48-39.24-209.16-1.8-5.76-4.32-9-8.28-9-4.68,0-6.48,2.52-9.36,9.72l-73.8,186.12s-73.08-182.16-75.24-186.84c-2.16-5.4-5.04-9-9.36-9-3.24,0-6.48,2.16-7.92,9.72-1.08,5.4-21.96,141.84-32.04,208.44-2.88,18.36-5.04,22.68-17.64,26.64a2.737,2.737,0,0,0-2.16,2.88v3.6a3.174,3.174,0,0,0,2.88,3.24h52.56a2.94,2.94,0,0,0,2.88-3.24v-3.6a2.851,2.851,0,0,0-1.8-2.88c-14.4-4.32-16.56-10.8-14.04-26.64l20.52-132.48s65.16,160.2,67.32,164.16C1487.22,358.92,1489.74,362.16,1493.7,362.16ZM1666.14,360H1801.5a6.222,6.222,0,0,0,6.12-5.4l10.08-64.08c.36-2.16-.36-3.6-2.52-3.6h-2.88c-1.44,0-2.52,1.08-3.24,2.52-9.36,27.72-25.2,47.88-49.32,47.88h-28.8c-10.8,0-12.6-4.68-12.96-14.04V241.56h32.76c17.64,0,24.12,13.68,28.44,28.44a3.136,3.136,0,0,0,2.88,2.16h2.16a3.226,3.226,0,0,0,3.24-3.24v-77.4a3.174,3.174,0,0,0-3.24-2.88h-2.16a2.737,2.737,0,0,0-2.88,2.16c-4.32,14.4-10.8,28.08-28.44,28.08h-32.76V144.72c.36-9.72,2.16-14.04,12.96-14.04h19.8c24.12,0,39.6,20.16,49.32,47.88a3.149,3.149,0,0,0,3.24,2.16h3.24c1.8,0,2.16-1.44,2.16-3.6l-10.08-63.72a6.286,6.286,0,0,0-6.48-5.4h-126a3.1,3.1,0,0,0-2.88,2.88v3.96a3.016,3.016,0,0,0,2.16,2.88c10.8,3.24,12.6,6.84,12.96,15.84V334.08c-.36,9-2.16,12.96-12.96,16.2a2.737,2.737,0,0,0-2.16,2.88v3.6A3.174,3.174,0,0,0,1666.14,360Zm189.36,5.4a21.818,21.818,0,0,0,21.96-21.96,21.963,21.963,0,1,0-43.92,0A21.818,21.818,0,0,0,1855.5,365.4Z" transform="translate(-44.34 -102.6)" fill="#faf3e4"/>
</svg>
