<svg xmlns="http://www.w3.org/2000/svg" width="1614.678" height="451.08" viewBox="0 0 1614.678 451.08">
  <path id="Path_7" data-name="Path 7" d="M42.532,198.94c24.892,0,41.748-13.328,41.748-38.808,0-43.512-62.72-48.02-62.72-75.852,0-9.016,6.664-18.816,19.6-18.228,14.9.784,28.028,17.444,32.34,32.34.588,1.96.588,3.136,1.764,3.136h2.352c.98,0,1.176-.784,1.176-2.94C78.4,88.2,78.2,80.752,77.42,66.836c-.2-1.764-.784-3.724-2.352-4.7-5.88-4.116-18.62-6.272-28.812-6.272-25.088,0-42.532,15.484-42.532,35.868,0,45.472,66.052,42.336,60.76,81.144-1.568,10.78-9.8,16.072-21.56,15.288-20.58-1.372-33.516-23.324-36.652-42.728-.2-1.568-.588-2.352-1.96-2.352H2.94c-1.372,0-2.156.784-1.96,2.94.2,12.544,1.176,29.792,1.764,37.436a7.525,7.525,0,0,0,3.136,4.7C13.524,193.844,26.46,198.94,42.532,198.94Zm85.26-2.94h34.692a1.6,1.6,0,0,0,1.568-1.764v-1.96a1.552,1.552,0,0,0-.98-1.568c-6.076-1.764-7.056-3.92-7.252-8.82V78.792c.2-5.292,1.176-7.644,7.056-7.644h2.744c13.132,0,19.8,10.976,25.088,26.068a1.985,1.985,0,0,0,1.764,1.176h1.568c1.176,0,1.372-.784,1.176-1.96L191.492,61.74a3.368,3.368,0,0,0-3.332-2.94H102.116a3.231,3.231,0,0,0-3.332,2.94l-3.92,34.692c-.2,1.176.2,1.96,1.176,1.96H97.8a1.985,1.985,0,0,0,1.764-1.176c5.292-15.092,11.956-26.068,25.088-26.068H127.4c5.88,0,6.86,2.352,7.056,7.644v103.1c-.2,4.9-1.176,7.056-7.252,8.82a1.707,1.707,0,0,0-1.176,1.568v1.96A1.757,1.757,0,0,0,127.792,196Zm81.536,0h34.888a1.728,1.728,0,0,0,1.568-1.764v-1.96a1.49,1.49,0,0,0-1.176-1.568c-5.88-1.764-6.86-3.92-7.056-8.82V135.436h14.112l39.4,58.212A5.386,5.386,0,0,0,295.372,196H320.46a1.728,1.728,0,0,0,1.568-1.764v-1.96a1.49,1.49,0,0,0-1.176-1.568c-6.468-1.96-8.82-4.508-12.544-9.8l-34.1-49.2c15.092-5.292,25.284-16.66,25.284-34.692,0-26.264-21.756-38.22-49.784-38.22H209.328a1.546,1.546,0,0,0-1.568,1.568v2.156a1.642,1.642,0,0,0,1.176,1.568c5.88,1.764,7.056,3.724,7.056,8.624V181.888c0,4.9-1.176,7.056-7.056,8.82a1.49,1.49,0,0,0-1.176,1.568v1.96A1.728,1.728,0,0,0,209.328,196Zm28.224-80.556V78.792c.2-5.292,1.176-7.644,7.056-7.644h2.548c17.248,0,30.184,9.6,30.184,25.872,0,16.464-12.936,26.068-30.184,26.068h-2.548C238.728,123.088,237.748,120.736,237.552,115.444ZM334.18,196h73.7a3.388,3.388,0,0,0,3.332-2.94l5.488-34.888c.2-1.176-.2-1.96-1.372-1.96h-1.568a2.092,2.092,0,0,0-1.764,1.372c-5.1,15.092-13.72,26.068-26.852,26.068H369.46c-5.88,0-6.86-2.548-7.056-7.644V131.516H380.24c9.6,0,13.132,7.448,15.484,15.484a1.707,1.707,0,0,0,1.568,1.176h1.176a1.757,1.757,0,0,0,1.764-1.764v-42.14a1.728,1.728,0,0,0-1.764-1.568h-1.176a1.49,1.49,0,0,0-1.568,1.176c-2.352,7.84-5.88,15.288-15.484,15.288H362.4V78.792c.2-5.292,1.176-7.644,7.056-7.644h10.78c13.132,0,21.56,10.976,26.852,26.068a1.714,1.714,0,0,0,1.764,1.176h1.764c.98,0,1.176-.784,1.176-1.96L406.308,61.74a3.422,3.422,0,0,0-3.528-2.94h-68.6a1.686,1.686,0,0,0-1.568,1.568v2.156a1.642,1.642,0,0,0,1.176,1.568c5.88,1.764,6.86,3.724,7.056,8.624V181.888c-.2,4.9-1.176,7.056-7.056,8.82a1.49,1.49,0,0,0-1.176,1.568v1.96A1.728,1.728,0,0,0,334.18,196Zm95.648,0h73.7a3.388,3.388,0,0,0,3.332-2.94l5.488-34.888c.2-1.176-.2-1.96-1.372-1.96H509.4a2.092,2.092,0,0,0-1.764,1.372c-5.1,15.092-13.72,26.068-26.852,26.068h-15.68c-5.88,0-6.86-2.548-7.056-7.644V131.516h17.836c9.6,0,13.132,7.448,15.484,15.484a1.707,1.707,0,0,0,1.568,1.176h1.176a1.757,1.757,0,0,0,1.764-1.764v-42.14a1.728,1.728,0,0,0-1.764-1.568H492.94a1.49,1.49,0,0,0-1.568,1.176c-2.352,7.84-5.88,15.288-15.484,15.288H458.052V78.792c.2-5.292,1.176-7.644,7.056-7.644h10.78c13.132,0,21.56,10.976,26.852,26.068a1.714,1.714,0,0,0,1.764,1.176h1.764c.98,0,1.176-.784,1.176-1.96L501.956,61.74a3.422,3.422,0,0,0-3.528-2.94h-68.6a1.686,1.686,0,0,0-1.568,1.568v2.156a1.642,1.642,0,0,0,1.176,1.568c5.88,1.764,6.86,3.724,7.056,8.624V181.888c-.2,4.9-1.176,7.056-7.056,8.82a1.49,1.49,0,0,0-1.176,1.568v1.96A1.728,1.728,0,0,0,429.828,196Zm123.088,0h34.692a1.6,1.6,0,0,0,1.568-1.764v-1.96a1.552,1.552,0,0,0-.98-1.568c-6.076-1.764-7.056-3.92-7.252-8.82V78.792c.2-5.292,1.176-7.644,7.056-7.644h2.744c13.132,0,19.8,10.976,25.088,26.068a1.985,1.985,0,0,0,1.764,1.176h1.568c1.176,0,1.372-.784,1.176-1.96L616.616,61.74a3.368,3.368,0,0,0-3.332-2.94H527.24a3.231,3.231,0,0,0-3.332,2.94l-3.92,34.692c-.2,1.176.2,1.96,1.176,1.96h1.764a1.985,1.985,0,0,0,1.764-1.176c5.292-15.092,11.956-26.068,25.088-26.068h2.744c5.88,0,6.86,2.352,7.056,7.644v103.1c-.2,4.9-1.176,7.056-7.252,8.82a1.707,1.707,0,0,0-1.176,1.568v1.96A1.757,1.757,0,0,0,552.916,196Zm140.14,0h45.472c27.832,0,49.784-12.544,49.784-39,0-18.424-11.564-31.948-30.576-35.868,9.6-2.94,18.816-13.916,18.816-26.46,0-25.284-19.992-35.868-46.452-35.868H693.056a1.686,1.686,0,0,0-1.568,1.568v2.156a1.642,1.642,0,0,0,1.176,1.568c5.88,1.764,7.056,3.724,7.056,8.624V181.888c0,4.9-1.176,7.056-7.056,8.82a1.49,1.49,0,0,0-1.176,1.568v1.96A1.728,1.728,0,0,0,693.056,196Zm28.224-18.424v-39.4c.2-5.292,1.176-7.644,7.056-7.644h7.448c17.248,0,30.184,10.584,30.184,26.46,0,16.464-12.936,26.656-30.184,26.656h-7.448C723.044,183.652,721.672,181.692,721.28,177.576Zm0-67.032V78.792c.2-5.292,1.176-7.644,7.056-7.644h.784c15.288,0,25.48,9.408,25.48,23.52,0,14.308-10.192,23.52-25.48,23.52h-.784C722.456,118.188,721.476,115.836,721.28,110.544ZM823.2,196h34.692a1.757,1.757,0,0,0,1.764-1.764v-1.96a1.707,1.707,0,0,0-1.176-1.568c-6.076-1.764-7.056-3.92-7.252-8.82v-42.14l27.244-60.76c3.92-8.82,6.86-12.74,13.72-14.9a1.838,1.838,0,0,0,1.176-1.568V60.368A1.546,1.546,0,0,0,891.8,58.8H863.576a1.546,1.546,0,0,0-1.568,1.568v2.156a1.642,1.642,0,0,0,1.176,1.568c7.84,2.352,7.056,5.88,3.332,14.5l-21.56,49.2-23.52-49.2c-4.312-9.408-4.312-12.152,3.528-14.5a1.642,1.642,0,0,0,1.176-1.568V60.368a1.443,1.443,0,0,0-1.568-1.568H784.784a1.546,1.546,0,0,0-1.568,1.568v2.156a1.838,1.838,0,0,0,1.176,1.568c6.664,2.156,9.016,6.076,13.328,14.5,10,19.6,24.7,48.216,32.144,62.524v40.768c-.2,4.9-1.176,7.056-7.252,8.82a1.552,1.552,0,0,0-.98,1.568v1.96A1.6,1.6,0,0,0,823.2,196Zm178.948,2.94c24.892,0,41.748-13.328,41.748-38.808,0-43.512-62.72-48.02-62.72-75.852,0-9.016,6.664-18.816,19.6-18.228,14.9.784,28.028,17.444,32.34,32.34.588,1.96.588,3.136,1.764,3.136h2.352c.98,0,1.176-.784,1.176-2.94-.392-10.388-.588-17.836-1.372-31.752-.2-1.764-.784-3.724-2.352-4.7-5.88-4.116-18.62-6.272-28.812-6.272-25.088,0-42.532,15.484-42.532,35.868,0,45.472,66.052,42.336,60.76,81.144-1.568,10.78-9.8,16.072-21.56,15.288-20.58-1.372-33.516-23.324-36.652-42.728-.2-1.568-.588-2.352-1.96-2.352h-1.372c-1.372,0-2.156.784-1.96,2.94.2,12.544,1.176,29.792,1.764,37.436a7.525,7.525,0,0,0,3.136,4.7C973.14,193.844,986.076,198.94,1002.148,198.94Zm85.26-2.94H1122.1a1.6,1.6,0,0,0,1.568-1.764v-1.96a1.552,1.552,0,0,0-.98-1.568c-6.076-1.764-7.056-3.92-7.252-8.82V78.792c.2-5.292,1.176-7.644,7.056-7.644h2.744c13.132,0,19.8,10.976,25.088,26.068a1.985,1.985,0,0,0,1.764,1.176h1.568c1.176,0,1.372-.784,1.176-1.96l-3.724-34.692a3.368,3.368,0,0,0-3.332-2.94h-86.044a3.231,3.231,0,0,0-3.332,2.94l-3.92,34.692c-.2,1.176.2,1.96,1.176,1.96h1.764a1.985,1.985,0,0,0,1.764-1.176c5.292-15.092,11.956-26.068,25.088-26.068h2.744c5.88,0,6.86,2.352,7.056,7.644v103.1c-.2,4.9-1.176,7.056-7.252,8.82a1.707,1.707,0,0,0-1.176,1.568v1.96A1.757,1.757,0,0,0,1087.408,196Zm81.536,0h34.888a1.728,1.728,0,0,0,1.568-1.764v-1.96a1.49,1.49,0,0,0-1.176-1.568c-5.88-1.764-6.86-3.92-7.056-8.82V135.436h14.112l39.4,58.212a5.386,5.386,0,0,0,4.312,2.352h25.088a1.728,1.728,0,0,0,1.568-1.764v-1.96a1.49,1.49,0,0,0-1.176-1.568c-6.468-1.96-8.82-4.508-12.544-9.8l-34.1-49.2c15.092-5.292,25.284-16.66,25.284-34.692,0-26.264-21.756-38.22-49.784-38.22h-40.376a1.546,1.546,0,0,0-1.568,1.568v2.156a1.642,1.642,0,0,0,1.176,1.568c5.88,1.764,7.056,3.724,7.056,8.624V181.888c0,4.9-1.176,7.056-7.056,8.82a1.491,1.491,0,0,0-1.176,1.568v1.96A1.728,1.728,0,0,0,1168.944,196Zm28.224-80.556V78.792c.2-5.292,1.176-7.644,7.056-7.644h2.548c17.248,0,30.184,9.6,30.184,25.872,0,16.464-12.936,26.068-30.184,26.068h-2.548C1198.344,123.088,1197.364,120.736,1197.168,115.444ZM1293.8,196h73.7a3.388,3.388,0,0,0,3.332-2.94l5.488-34.888c.2-1.176-.2-1.96-1.372-1.96h-1.568a2.093,2.093,0,0,0-1.764,1.372c-5.1,15.092-13.72,26.068-26.852,26.068h-15.68c-5.88,0-6.86-2.548-7.056-7.644V131.516h17.836c9.6,0,13.132,7.448,15.484,15.484a1.707,1.707,0,0,0,1.568,1.176h1.176a1.757,1.757,0,0,0,1.764-1.764v-42.14a1.728,1.728,0,0,0-1.764-1.568h-1.176a1.49,1.49,0,0,0-1.568,1.176c-2.352,7.84-5.88,15.288-15.484,15.288H1322.02V78.792c.2-5.292,1.176-7.644,7.056-7.644h10.78c13.132,0,21.56,10.976,26.852,26.068a1.714,1.714,0,0,0,1.764,1.176h1.764c.98,0,1.176-.784,1.176-1.96l-5.488-34.692a3.422,3.422,0,0,0-3.528-2.94h-68.6a1.686,1.686,0,0,0-1.568,1.568v2.156a1.642,1.642,0,0,0,1.176,1.568c5.88,1.764,6.86,3.724,7.056,8.624V181.888c-.2,4.9-1.176,7.056-7.056,8.82a1.491,1.491,0,0,0-1.176,1.568v1.96A1.728,1.728,0,0,0,1293.8,196Zm95.648,0h73.7a3.388,3.388,0,0,0,3.332-2.94l5.488-34.888c.2-1.176-.2-1.96-1.372-1.96h-1.568a2.093,2.093,0,0,0-1.764,1.372c-5.1,15.092-13.72,26.068-26.852,26.068h-15.68c-5.88,0-6.86-2.548-7.056-7.644V131.516H1435.5c9.6,0,13.132,7.448,15.484,15.484a1.707,1.707,0,0,0,1.568,1.176h1.176a1.757,1.757,0,0,0,1.764-1.764v-42.14a1.728,1.728,0,0,0-1.764-1.568h-1.176a1.49,1.49,0,0,0-1.568,1.176c-2.352,7.84-5.88,15.288-15.484,15.288h-17.836V78.792c.2-5.292,1.176-7.644,7.056-7.644h10.78c13.132,0,21.56,10.976,26.852,26.068a1.714,1.714,0,0,0,1.764,1.176h1.764c.98,0,1.176-.784,1.176-1.96l-5.488-34.692a3.422,3.422,0,0,0-3.528-2.94h-68.6a1.686,1.686,0,0,0-1.568,1.568v2.156a1.642,1.642,0,0,0,1.176,1.568c5.88,1.764,6.86,3.724,7.056,8.624V181.888c-.2,4.9-1.176,7.056-7.056,8.82a1.491,1.491,0,0,0-1.176,1.568v1.96A1.728,1.728,0,0,0,1389.444,196Zm123.088,0h34.692a1.6,1.6,0,0,0,1.568-1.764v-1.96a1.552,1.552,0,0,0-.98-1.568c-6.076-1.764-7.056-3.92-7.252-8.82V78.792c.2-5.292,1.176-7.644,7.056-7.644h2.744c13.132,0,19.8,10.976,25.088,26.068a1.985,1.985,0,0,0,1.764,1.176h1.568c1.176,0,1.372-.784,1.176-1.96l-3.724-34.692a3.368,3.368,0,0,0-3.332-2.94h-86.044a3.231,3.231,0,0,0-3.332,2.94l-3.92,34.692c-.2,1.176.2,1.96,1.176,1.96h1.764a1.985,1.985,0,0,0,1.764-1.176c5.292-15.092,11.956-26.068,25.088-26.068h2.744c5.88,0,6.86,2.352,7.056,7.644v103.1c-.2,4.9-1.176,7.056-7.252,8.82a1.707,1.707,0,0,0-1.176,1.568v1.96A1.757,1.757,0,0,0,1512.532,196Zm84.672,21.364.2.2a3.371,3.371,0,0,0,4.7-.2c6.076-6.076,13.524-15.876,13.524-30.38a12.046,12.046,0,0,0-11.956-12.152,12.056,12.056,0,0,0-.392,24.108,33.41,33.41,0,0,1-6.272,14.112A3.287,3.287,0,0,0,1597.2,217.364ZM4.508,350H49.98c27.832,0,49.784-12.544,49.784-39,0-18.424-11.564-31.948-30.576-35.868,9.6-2.94,18.816-13.916,18.816-26.46C88,223.384,68.012,212.8,41.552,212.8H4.508a1.686,1.686,0,0,0-1.568,1.568v2.156a1.642,1.642,0,0,0,1.176,1.568c5.88,1.764,7.056,3.724,7.056,8.624V335.888c0,4.9-1.176,7.056-7.056,8.82a1.49,1.49,0,0,0-1.176,1.568v1.96A1.728,1.728,0,0,0,4.508,350Zm28.224-18.424v-39.4c.2-5.292,1.176-7.644,7.056-7.644h7.448c17.248,0,30.184,10.584,30.184,26.46,0,16.464-12.936,26.656-30.184,26.656H39.788C34.5,337.652,33.124,335.692,32.732,331.576Zm0-67.032V232.792c.2-5.292,1.176-7.644,7.056-7.644h.784c15.288,0,25.48,9.408,25.48,23.52,0,14.308-10.192,23.52-25.48,23.52h-.784C33.908,272.188,32.928,269.836,32.732,264.544ZM112.9,350H183.26a3.766,3.766,0,0,0,3.528-2.94l5.292-34.888c.2-1.176-.2-1.96-1.372-1.96H189.14a1.663,1.663,0,0,0-1.568,1.372c-5.292,15.092-13.72,26.068-27.048,26.068H148.176c-5.292,0-6.664-1.96-7.056-6.076V226.716c.2-4.9,1.176-6.86,7.056-8.624a1.642,1.642,0,0,0,1.176-1.568v-2.156a1.686,1.686,0,0,0-1.568-1.568H112.9a1.686,1.686,0,0,0-1.568,1.568v2.156a1.642,1.642,0,0,0,1.176,1.568c5.88,1.764,7.056,3.724,7.056,8.624V335.888c0,4.9-1.176,7.056-7.056,8.82a1.49,1.49,0,0,0-1.176,1.568v1.96A1.728,1.728,0,0,0,112.9,350Zm163.268,2.94c40.768,0,73.5-29.988,73.5-71.54,0-41.748-32.732-71.54-73.5-71.54s-73.5,29.792-73.5,71.54C202.664,322.952,235.4,352.94,276.164,352.94ZM225.6,281.4c0-35.084,20.384-61.544,50.568-61.544s50.568,26.46,50.568,61.544-20.384,61.544-50.568,61.544S225.6,316.484,225.6,281.4Zm215.8,71.54c18.032,0,29.988-3.724,40.376-10.388a4.052,4.052,0,0,0,1.96-2.744c.588-8.036,2.94-27.44,3.136-28.616.2-.98-.588-1.372-1.372-1.372h-1.568a1.474,1.474,0,0,0-1.372.98c-6.664,15.092-16.072,32.144-41.16,32.144-30.38,0-52.136-26.656-52.136-61.544,0-35.084,19.992-61.544,50.372-61.544,20.776,0,33.712,18.424,40.376,33.712a1.474,1.474,0,0,0,1.372.98h1.764c.784,0,1.372-.392,1.176-1.568,0-.98-1.96-19.8-2.94-29.008a6.057,6.057,0,0,0-2.94-4.312c-10.388-6.468-25.088-9.8-38.808-9.8-42.924,0-73.5,28.616-73.5,71.54S398.272,352.94,441.392,352.94ZM500.976,350h34.888a1.728,1.728,0,0,0,1.568-1.764v-1.96a1.707,1.707,0,0,0-1.176-1.568c-6.076-1.764-7.056-3.92-7.056-8.82v-34.1l16.464-19.012,44.688,64.876A5.326,5.326,0,0,0,594.468,350H620.34a1.728,1.728,0,0,0,1.568-1.764v-1.96a1.707,1.707,0,0,0-1.176-1.568c-6.468-1.96-8.82-4.508-12.544-9.8l-47.824-68.8,32.928-38.024c4.7-5.1,7.84-8.232,14.308-10a1.947,1.947,0,0,0,1.176-1.568v-2.156a1.728,1.728,0,0,0-1.764-1.568H578.2a1.546,1.546,0,0,0-1.568,1.568v2.156a1.746,1.746,0,0,0,.98,1.568c8.036,2.352,5.292,6.272-.98,13.524L529.2,283.752V226.716c0-4.9.98-6.86,7.056-8.624a1.947,1.947,0,0,0,1.176-1.568v-2.156a1.686,1.686,0,0,0-1.568-1.568H500.976a1.686,1.686,0,0,0-1.568,1.568v2.156a1.642,1.642,0,0,0,1.176,1.568c5.88,1.764,6.86,3.724,7.056,8.624V335.888c-.2,4.9-1.176,7.056-7.056,8.82a1.49,1.49,0,0,0-1.176,1.568v1.96A1.728,1.728,0,0,0,500.976,350Zm191.688,0h45.472c27.832,0,49.784-12.544,49.784-39,0-18.424-11.564-31.948-30.576-35.868,9.6-2.94,18.816-13.916,18.816-26.46,0-25.284-19.992-35.868-46.452-35.868H692.664a1.686,1.686,0,0,0-1.568,1.568v2.156a1.642,1.642,0,0,0,1.176,1.568c5.88,1.764,7.056,3.724,7.056,8.624V335.888c0,4.9-1.176,7.056-7.056,8.82a1.49,1.49,0,0,0-1.176,1.568v1.96A1.728,1.728,0,0,0,692.664,350Zm28.224-18.424v-39.4c.2-5.292,1.176-7.644,7.056-7.644h7.448c17.248,0,30.184,10.584,30.184,26.46,0,16.464-12.936,26.656-30.184,26.656h-7.448C722.652,337.652,721.28,335.692,720.888,331.576Zm0-67.032V232.792c.2-5.292,1.176-7.644,7.056-7.644h.784c15.288,0,25.48,9.408,25.48,23.52,0,14.308-10.192,23.52-25.48,23.52h-.784C722.064,272.188,721.084,269.836,720.888,264.544ZM822.808,350H857.5a1.757,1.757,0,0,0,1.764-1.764v-1.96a1.707,1.707,0,0,0-1.176-1.568c-6.076-1.764-7.056-3.92-7.252-8.82v-42.14l27.244-60.76c3.92-8.82,6.86-12.74,13.72-14.9a1.838,1.838,0,0,0,1.176-1.568v-2.156a1.546,1.546,0,0,0-1.568-1.568H863.184a1.546,1.546,0,0,0-1.568,1.568v2.156a1.642,1.642,0,0,0,1.176,1.568c7.84,2.352,7.056,5.88,3.332,14.5l-21.56,49.2-23.52-49.2c-4.312-9.408-4.312-12.152,3.528-14.5a1.642,1.642,0,0,0,1.176-1.568v-2.156a1.443,1.443,0,0,0-1.568-1.568H784.392a1.546,1.546,0,0,0-1.568,1.568v2.156A1.838,1.838,0,0,0,784,218.092c6.664,2.156,9.016,6.076,13.328,14.5,10,19.6,24.7,48.216,32.144,62.524v40.768c-.2,4.9-1.176,7.056-7.252,8.82a1.552,1.552,0,0,0-.98,1.568v1.96A1.6,1.6,0,0,0,822.808,350Zm140.924,0H1009.2c27.832,0,49.784-12.544,49.784-39,0-18.424-11.564-31.948-30.576-35.868,9.6-2.94,18.816-13.916,18.816-26.46,0-25.284-19.992-35.868-46.452-35.868H963.732a1.686,1.686,0,0,0-1.568,1.568v2.156a1.642,1.642,0,0,0,1.176,1.568c5.88,1.764,7.056,3.724,7.056,8.624V335.888c0,4.9-1.176,7.056-7.056,8.82a1.49,1.49,0,0,0-1.176,1.568v1.96A1.728,1.728,0,0,0,963.732,350Zm28.224-18.424v-39.4c.2-5.292,1.176-7.644,7.056-7.644h7.448c17.248,0,30.184,10.584,30.184,26.46,0,16.464-12.936,26.656-30.184,26.656h-7.448C993.72,337.652,992.348,335.692,991.956,331.576Zm0-67.032V232.792c.2-5.292,1.176-7.644,7.056-7.644h.784c15.288,0,25.48,9.408,25.48,23.52,0,14.308-10.192,23.52-25.48,23.52h-.784C993.132,272.188,992.152,269.836,991.956,264.544ZM1072.12,350h70.364a3.766,3.766,0,0,0,3.528-2.94l5.292-34.888c.2-1.176-.2-1.96-1.372-1.96h-1.568a1.663,1.663,0,0,0-1.568,1.372c-5.292,15.092-13.72,26.068-27.048,26.068H1107.4c-5.292,0-6.664-1.96-7.056-6.076V226.716c.2-4.9,1.176-6.86,7.056-8.624a1.642,1.642,0,0,0,1.176-1.568v-2.156a1.686,1.686,0,0,0-1.568-1.568H1072.12a1.686,1.686,0,0,0-1.568,1.568v2.156a1.642,1.642,0,0,0,1.176,1.568c5.88,1.764,7.056,3.724,7.056,8.624V335.888c0,4.9-1.176,7.056-7.056,8.82a1.49,1.49,0,0,0-1.176,1.568v1.96A1.728,1.728,0,0,0,1072.12,350Zm163.268,2.94c40.768,0,73.5-29.988,73.5-71.54,0-41.748-32.732-71.54-73.5-71.54s-73.5,29.792-73.5,71.54C1161.888,322.952,1194.62,352.94,1235.388,352.94ZM1184.82,281.4c0-35.084,20.384-61.544,50.568-61.544s50.568,26.46,50.568,61.544-20.384,61.544-50.568,61.544S1184.82,316.484,1184.82,281.4Zm215.8,71.54c18.032,0,29.988-3.724,40.376-10.388a4.052,4.052,0,0,0,1.96-2.744c.588-8.036,2.94-27.44,3.136-28.616.2-.98-.588-1.372-1.372-1.372h-1.568a1.474,1.474,0,0,0-1.372.98c-6.664,15.092-16.072,32.144-41.16,32.144-30.38,0-52.136-26.656-52.136-61.544,0-35.084,19.992-61.544,50.372-61.544,20.776,0,33.712,18.424,40.376,33.712a1.474,1.474,0,0,0,1.372.98h1.764c.784,0,1.372-.392,1.176-1.568,0-.98-1.96-19.8-2.94-29.008a6.058,6.058,0,0,0-2.94-4.312c-10.388-6.468-25.088-9.8-38.808-9.8-42.924,0-73.5,28.616-73.5,71.54S1357.5,352.94,1400.616,352.94ZM1460.2,350h34.888a1.728,1.728,0,0,0,1.568-1.764v-1.96a1.707,1.707,0,0,0-1.176-1.568c-6.076-1.764-7.056-3.92-7.056-8.82v-34.1l16.464-19.012,44.688,64.876a5.326,5.326,0,0,0,4.116,2.352h25.872a1.728,1.728,0,0,0,1.568-1.764v-1.96a1.707,1.707,0,0,0-1.176-1.568c-6.468-1.96-8.82-4.508-12.544-9.8l-47.824-68.8,32.928-38.024c4.7-5.1,7.84-8.232,14.308-10a1.947,1.947,0,0,0,1.176-1.568v-2.156a1.728,1.728,0,0,0-1.764-1.568h-28.812a1.546,1.546,0,0,0-1.568,1.568v2.156a1.746,1.746,0,0,0,.98,1.568c8.036,2.352,5.292,6.272-.98,13.524l-47.432,52.136V226.716c0-4.9.98-6.86,7.056-8.624a1.947,1.947,0,0,0,1.176-1.568v-2.156a1.686,1.686,0,0,0-1.568-1.568H1460.2a1.686,1.686,0,0,0-1.568,1.568v2.156a1.642,1.642,0,0,0,1.176,1.568c5.88,1.764,6.86,3.724,7.056,8.624V335.888c-.2,4.9-1.176,7.056-7.056,8.82a1.49,1.49,0,0,0-1.176,1.568v1.96A1.728,1.728,0,0,0,1460.2,350Zm136.22,21.364.2.2a3.371,3.371,0,0,0,4.7-.2c6.076-6.076,13.524-15.876,13.524-30.38a12.046,12.046,0,0,0-11.956-12.152,12.056,12.056,0,0,0-.392,24.108,33.409,33.409,0,0,1-6.272,14.112A3.287,3.287,0,0,0,1596.42,371.364ZM34.888,504H69.58a1.6,1.6,0,0,0,1.568-1.764v-1.96a1.552,1.552,0,0,0-.98-1.568c-6.076-1.764-7.056-3.92-7.252-8.82v-103.1c.2-5.292,1.176-7.644,7.056-7.644h2.744c13.132,0,19.8,10.976,25.088,26.068a1.985,1.985,0,0,0,1.764,1.176h1.568c1.176,0,1.372-.784,1.176-1.96L98.588,369.74a3.368,3.368,0,0,0-3.332-2.94H9.212a3.231,3.231,0,0,0-3.332,2.94L1.96,404.432c-.2,1.176.2,1.96,1.176,1.96H4.9a1.985,1.985,0,0,0,1.764-1.176c5.292-15.092,11.956-26.068,25.088-26.068H34.5c5.88,0,6.86,2.352,7.056,7.644v103.1c-.2,4.9-1.176,7.056-7.252,8.82a1.707,1.707,0,0,0-1.176,1.568v1.96A1.757,1.757,0,0,0,34.888,504Zm81.536,0h34.888a1.728,1.728,0,0,0,1.568-1.764v-1.96a1.49,1.49,0,0,0-1.176-1.568c-5.88-1.764-6.86-3.92-7.056-8.82V443.436H158.76l39.4,58.212A5.386,5.386,0,0,0,202.468,504h25.088a1.728,1.728,0,0,0,1.568-1.764v-1.96a1.49,1.49,0,0,0-1.176-1.568c-6.468-1.96-8.82-4.508-12.544-9.8l-34.1-49.2c15.092-5.292,25.284-16.66,25.284-34.692,0-26.264-21.756-38.22-49.784-38.22H116.424a1.546,1.546,0,0,0-1.568,1.568v2.156a1.642,1.642,0,0,0,1.176,1.568c5.88,1.764,7.056,3.724,7.056,8.624V489.888c0,4.9-1.176,7.056-7.056,8.82a1.49,1.49,0,0,0-1.176,1.568v1.96A1.728,1.728,0,0,0,116.424,504Zm28.224-80.556V386.792c.2-5.292,1.176-7.644,7.056-7.644h2.548c17.248,0,30.184,9.6,30.184,25.872,0,16.464-12.936,26.068-30.184,26.068H151.7C145.824,431.088,144.844,428.736,144.648,423.444ZM240.492,504h29.792a1.728,1.728,0,0,0,1.568-1.764v-1.96a1.707,1.707,0,0,0-1.176-1.568c-7.84-2.352-8.232-6.076-4.7-14.308l9.6-23.716H328.3l10.192,23.52c3.92,9.408,3.332,12.152-4.7,14.5a1.552,1.552,0,0,0-.98,1.568v1.96A1.6,1.6,0,0,0,334.376,504h38.416a1.728,1.728,0,0,0,1.568-1.764v-1.96a1.49,1.49,0,0,0-1.176-1.568c-6.076-2.156-8.036-5.1-11.368-11.956-15.876-35.672-50.764-114.072-51.94-116.424-1.372-2.94-2.352-4.9-4.9-4.9-2.744,0-3.528,1.372-5.1,5.292-1.372,2.94-35.084,82.516-49.784,117.208-2.744,6.272-4.312,8.82-10.192,10.78a1.707,1.707,0,0,0-1.176,1.568v1.96A1.757,1.757,0,0,0,240.492,504Zm40.18-55.664,20.58-50.568,21.756,50.568ZM386.512,504h45.276c43.512,0,75.068-28.224,75.068-68.6,0-40.572-31.556-68.6-75.068-68.6H386.512a1.686,1.686,0,0,0-1.568,1.568v2.156a1.642,1.642,0,0,0,1.176,1.568c5.88,1.764,7.056,3.724,7.056,8.624V489.888c0,4.9-1.176,7.056-7.056,8.82a1.49,1.49,0,0,0-1.176,1.568v1.96A1.728,1.728,0,0,0,386.512,504Zm28.224-19.992V386.792c.2-5.292,1.176-7.644,7.056-7.644h6.664c32.732,0,55.468,21.952,55.468,56.252s-22.736,56.252-55.468,56.252h-6.664C415.912,491.652,414.932,489.1,414.736,484.008ZM519.988,504h73.7a3.388,3.388,0,0,0,3.332-2.94l5.488-34.888c.2-1.176-.2-1.96-1.372-1.96h-1.568a2.092,2.092,0,0,0-1.764,1.372c-5.1,15.092-13.72,26.068-26.852,26.068h-15.68c-5.88,0-6.86-2.548-7.056-7.644V439.516h17.836c9.6,0,13.132,7.448,15.484,15.484a1.707,1.707,0,0,0,1.568,1.176h1.176a1.757,1.757,0,0,0,1.764-1.764v-42.14a1.728,1.728,0,0,0-1.764-1.568H583.1a1.49,1.49,0,0,0-1.568,1.176c-2.352,7.84-5.88,15.288-15.484,15.288H548.212V386.792c.2-5.292,1.176-7.644,7.056-7.644h10.78c13.132,0,21.56,10.976,26.852,26.068a1.714,1.714,0,0,0,1.764,1.176h1.764c.98,0,1.176-.784,1.176-1.96l-5.488-34.692a3.422,3.422,0,0,0-3.528-2.94h-68.6a1.686,1.686,0,0,0-1.568,1.568v2.156a1.642,1.642,0,0,0,1.176,1.568c5.88,1.764,6.86,3.724,7.056,8.624V489.888c-.2,4.9-1.176,7.056-7.056,8.82a1.49,1.49,0,0,0-1.176,1.568v1.96A1.728,1.728,0,0,0,519.988,504Zm154.252,0h45.472c27.832,0,49.784-12.544,49.784-39,0-18.424-11.564-31.948-30.576-35.868,9.6-2.94,18.816-13.916,18.816-26.46,0-25.284-19.992-35.868-46.452-35.868H674.24a1.686,1.686,0,0,0-1.568,1.568v2.156a1.642,1.642,0,0,0,1.176,1.568c5.88,1.764,7.056,3.724,7.056,8.624V489.888c0,4.9-1.176,7.056-7.056,8.82a1.49,1.49,0,0,0-1.176,1.568v1.96A1.728,1.728,0,0,0,674.24,504Zm28.224-18.424v-39.4c.2-5.292,1.176-7.644,7.056-7.644h7.448c17.248,0,30.184,10.584,30.184,26.46,0,16.464-12.936,26.656-30.184,26.656H709.52C704.228,491.652,702.856,489.692,702.464,485.576Zm0-67.032V386.792c.2-5.292,1.176-7.644,7.056-7.644h.784c15.288,0,25.48,9.408,25.48,23.52,0,14.308-10.192,23.52-25.48,23.52h-.784C703.64,426.188,702.66,423.836,702.464,418.544ZM804.384,504h34.692a1.757,1.757,0,0,0,1.764-1.764v-1.96a1.707,1.707,0,0,0-1.176-1.568c-6.076-1.764-7.056-3.92-7.252-8.82v-42.14l27.244-60.76c3.92-8.82,6.86-12.74,13.72-14.9a1.838,1.838,0,0,0,1.176-1.568v-2.156a1.546,1.546,0,0,0-1.568-1.568H844.76a1.546,1.546,0,0,0-1.568,1.568v2.156a1.642,1.642,0,0,0,1.176,1.568c7.84,2.352,7.056,5.88,3.332,14.5l-21.56,49.2-23.52-49.2c-4.312-9.408-4.312-12.152,3.528-14.5a1.642,1.642,0,0,0,1.176-1.568v-2.156a1.443,1.443,0,0,0-1.568-1.568H765.968a1.546,1.546,0,0,0-1.568,1.568v2.156a1.838,1.838,0,0,0,1.176,1.568c6.664,2.156,9.016,6.076,13.328,14.5,10,19.6,24.7,48.216,32.144,62.524v40.768c-.2,4.9-1.176,7.056-7.252,8.82a1.552,1.552,0,0,0-.98,1.568v1.96A1.6,1.6,0,0,0,804.384,504Zm171.3,0h34.692a1.6,1.6,0,0,0,1.568-1.764v-1.96a1.552,1.552,0,0,0-.98-1.568c-6.076-1.764-7.056-3.92-7.252-8.82v-103.1c.2-5.292,1.176-7.644,7.056-7.644h2.744c13.132,0,19.8,10.976,25.088,26.068a1.985,1.985,0,0,0,1.764,1.176h1.568c1.176,0,1.372-.784,1.176-1.96l-3.724-34.692a3.368,3.368,0,0,0-3.332-2.94H950.012a3.231,3.231,0,0,0-3.332,2.94l-3.92,34.692c-.2,1.176.2,1.96,1.176,1.96H945.7a1.985,1.985,0,0,0,1.764-1.176c5.292-15.092,11.956-26.068,25.088-26.068H975.3c5.88,0,6.86,2.352,7.056,7.644v103.1c-.2,4.9-1.176,7.056-7.252,8.82a1.707,1.707,0,0,0-1.176,1.568v1.96A1.757,1.757,0,0,0,975.688,504Zm81.536,0h34.888a1.728,1.728,0,0,0,1.568-1.764v-1.96a1.49,1.49,0,0,0-1.176-1.568c-5.88-1.764-6.86-3.92-7.056-8.82V443.436h14.112l39.4,58.212a5.386,5.386,0,0,0,4.312,2.352h25.088a1.728,1.728,0,0,0,1.568-1.764v-1.96a1.49,1.49,0,0,0-1.176-1.568c-6.468-1.96-8.82-4.508-12.544-9.8l-34.1-49.2c15.092-5.292,25.284-16.66,25.284-34.692,0-26.264-21.756-38.22-49.784-38.22h-40.376a1.546,1.546,0,0,0-1.568,1.568v2.156a1.642,1.642,0,0,0,1.176,1.568c5.88,1.764,7.056,3.724,7.056,8.624V489.888c0,4.9-1.176,7.056-7.056,8.82a1.49,1.49,0,0,0-1.176,1.568v1.96A1.728,1.728,0,0,0,1057.224,504Zm28.224-80.556V386.792c.2-5.292,1.176-7.644,7.056-7.644h2.548c17.248,0,30.184,9.6,30.184,25.872,0,16.464-12.936,26.068-30.184,26.068H1092.5C1086.624,431.088,1085.644,428.736,1085.448,423.444ZM1181.292,504h29.792a1.728,1.728,0,0,0,1.568-1.764v-1.96a1.707,1.707,0,0,0-1.176-1.568c-7.84-2.352-8.232-6.076-4.7-14.308l9.6-23.716H1269.1l10.192,23.52c3.92,9.408,3.332,12.152-4.7,14.5a1.552,1.552,0,0,0-.98,1.568v1.96a1.6,1.6,0,0,0,1.568,1.764h38.416a1.728,1.728,0,0,0,1.568-1.764v-1.96a1.49,1.49,0,0,0-1.176-1.568c-6.076-2.156-8.036-5.1-11.368-11.956-15.876-35.672-50.764-114.072-51.94-116.424-1.372-2.94-2.352-4.9-4.9-4.9-2.744,0-3.528,1.372-5.1,5.292-1.372,2.94-35.084,82.516-49.784,117.208-2.744,6.272-4.312,8.82-10.192,10.78a1.707,1.707,0,0,0-1.176,1.568v1.96A1.757,1.757,0,0,0,1181.292,504Zm40.18-55.664,20.58-50.568,21.756,50.568ZM1327.312,504h45.276c43.512,0,75.068-28.224,75.068-68.6,0-40.572-31.556-68.6-75.068-68.6h-45.276a1.686,1.686,0,0,0-1.568,1.568v2.156a1.642,1.642,0,0,0,1.176,1.568c5.88,1.764,7.056,3.724,7.056,8.624V489.888c0,4.9-1.176,7.056-7.056,8.82a1.49,1.49,0,0,0-1.176,1.568v1.96A1.728,1.728,0,0,0,1327.312,504Zm28.224-19.992V386.792c.2-5.292,1.176-7.644,7.056-7.644h6.664c32.732,0,55.468,21.952,55.468,56.252s-22.736,56.252-55.468,56.252h-6.664C1356.712,491.652,1355.732,489.1,1355.536,484.008ZM1460.788,504h73.7a3.388,3.388,0,0,0,3.332-2.94l5.488-34.888c.2-1.176-.2-1.96-1.372-1.96h-1.568a2.093,2.093,0,0,0-1.764,1.372c-5.1,15.092-13.72,26.068-26.852,26.068h-15.68c-5.88,0-6.86-2.548-7.056-7.644V439.516h17.836c9.6,0,13.132,7.448,15.484,15.484a1.707,1.707,0,0,0,1.568,1.176h1.176a1.757,1.757,0,0,0,1.764-1.764v-42.14a1.728,1.728,0,0,0-1.764-1.568H1523.9a1.49,1.49,0,0,0-1.568,1.176c-2.352,7.84-5.88,15.288-15.484,15.288h-17.836V386.792c.2-5.292,1.176-7.644,7.056-7.644h10.78c13.132,0,21.56,10.976,26.852,26.068a1.714,1.714,0,0,0,1.764,1.176h1.764c.98,0,1.176-.784,1.176-1.96l-5.488-34.692a3.422,3.422,0,0,0-3.528-2.94h-68.6a1.686,1.686,0,0,0-1.568,1.568v2.156a1.642,1.642,0,0,0,1.176,1.568c5.88,1.764,6.86,3.724,7.056,8.624V489.888c-.2,4.9-1.176,7.056-7.056,8.82a1.49,1.49,0,0,0-1.176,1.568v1.96A1.728,1.728,0,0,0,1460.788,504Zm107.016,2.94a11.879,11.879,0,0,0,11.956-11.956,11.958,11.958,0,1,0-23.912,0A11.879,11.879,0,0,0,1567.8,506.94Z" transform="translate(-0.95 -55.86)" fill="#faf3e4"/>
</svg>
