<svg xmlns="http://www.w3.org/2000/svg" width="1526.85" height="546.8" viewBox="0 0 1526.85 546.8">
  <path id="Path_8" data-name="Path 8" d="M513.42,365.4c45.72,0,76.68-24.48,76.68-71.28,0-79.92-115.2-88.2-115.2-139.32,0-16.56,12.24-34.56,36-33.48,27.36,1.44,51.48,32.04,59.4,59.4,1.08,3.6,1.08,5.76,3.24,5.76h4.32c1.8,0,2.16-1.44,2.16-5.4-.72-19.08-1.08-32.76-2.52-58.32-.36-3.24-1.44-6.84-4.32-8.64-10.8-7.56-34.2-11.52-52.92-11.52-46.08,0-78.12,28.44-78.12,65.88,0,83.52,121.32,77.76,111.6,149.04-2.88,19.8-18,29.52-39.6,28.08-37.8-2.52-61.56-42.84-67.32-78.48-.36-2.88-1.08-4.32-3.6-4.32H440.7c-2.52,0-3.96,1.44-3.6,5.4.36,23.04,2.16,54.72,3.24,68.76.36,3.24,2.88,6.48,5.76,8.64C460.14,356.04,483.9,365.4,513.42,365.4Zm183.6-2.88c4.68,0,6.84-2.52,9.36-9.72,1.44-5.4,47.88-150.84,47.88-150.84s44.64,147.24,46.08,151.2c2.16,5.76,5.4,9.36,9.36,9.36,4.32,0,6.48-3.24,9.36-9.72l67.32-208.44c5.76-16.92,7.56-22.68,20.16-26.64,1.08-.72,2.16-1.8,2.16-2.88v-3.96a2.839,2.839,0,0,0-2.88-2.88H855.06a2.65,2.65,0,0,0-2.88,2.88v3.96a3.206,3.206,0,0,0,1.8,2.88c14.76,4.32,13.32,10.8,8.64,26.64L820.5,281.52s-45.36-165.24-46.44-168.48c-.72-2.52-2.16-7.56-8.28-7.56-5.76,0-7.2,4.68-7.92,7.92-1.08,2.88-51.48,168.12-51.48,168.12l-41.76-136.8c-5.4-16.92-6.12-22.68,8.28-27a3.016,3.016,0,0,0,2.16-2.88v-3.96a2.65,2.65,0,0,0-2.88-2.88h-73.8a2.94,2.94,0,0,0-3.24,2.88v3.96c0,1.08,1.08,2.16,2.16,2.88,12.24,3.96,17.64,10.44,23.04,26.64,21.6,67.32,65.52,204.12,67.32,208.8C689.82,358.92,692.34,362.52,697.02,362.52ZM923.82,360h135.36a6.223,6.223,0,0,0,6.12-5.4l10.08-64.08c.36-2.16-.36-3.6-2.52-3.6h-2.88c-1.44,0-2.52,1.08-3.24,2.52-9.36,27.72-25.2,47.88-49.32,47.88h-28.8c-10.8,0-12.6-4.68-12.96-14.04V241.56h32.76c17.64,0,24.12,13.68,28.44,28.44a3.136,3.136,0,0,0,2.88,2.16h2.16a3.227,3.227,0,0,0,3.24-3.24v-77.4a3.174,3.174,0,0,0-3.24-2.88h-2.16a2.737,2.737,0,0,0-2.88,2.16c-4.32,14.4-10.8,28.08-28.44,28.08H975.66V144.72c.36-9.72,2.16-14.04,12.96-14.04h19.8c24.12,0,39.6,20.16,49.32,47.88a3.149,3.149,0,0,0,3.24,2.16h3.24c1.8,0,2.16-1.44,2.16-3.6L1056.3,113.4a6.286,6.286,0,0,0-6.48-5.4h-126a3.1,3.1,0,0,0-2.88,2.88v3.96a3.016,3.016,0,0,0,2.16,2.88c10.8,3.24,12.6,6.84,12.96,15.84V334.08c-.36,9-2.16,12.96-12.96,16.2a2.737,2.737,0,0,0-2.16,2.88v3.6A3.174,3.174,0,0,0,923.82,360Zm159.84,0h54.72a3.174,3.174,0,0,0,2.88-3.24v-3.6a3.136,3.136,0,0,0-2.16-2.88c-14.4-4.32-15.12-11.16-8.64-26.28l17.64-43.56h96.84l18.72,43.2c7.2,17.28,6.12,22.32-8.64,26.64a2.851,2.851,0,0,0-1.8,2.88v3.6a2.94,2.94,0,0,0,2.88,3.24h70.56a3.174,3.174,0,0,0,2.88-3.24v-3.6a2.737,2.737,0,0,0-2.16-2.88c-11.16-3.96-14.76-9.36-20.88-21.96-29.16-65.52-93.24-209.52-95.4-213.84-2.52-5.4-4.32-9-9-9-5.04,0-6.48,2.52-9.36,9.72-2.52,5.4-64.44,151.56-91.44,215.28-5.04,11.52-7.92,16.2-18.72,19.8a3.136,3.136,0,0,0-2.16,2.88v3.6A3.226,3.226,0,0,0,1083.66,360Zm73.8-102.24,37.8-92.88,39.96,92.88ZM1357.26,360h63.72a2.94,2.94,0,0,0,2.88-3.24v-3.6a2.851,2.851,0,0,0-1.8-2.88c-11.16-3.24-12.96-7.2-13.32-16.2V144.72c.36-9.72,2.16-14.04,12.96-14.04h5.04c24.12,0,36.36,20.16,46.08,47.88a3.646,3.646,0,0,0,3.24,2.16h2.88c2.16,0,2.52-1.44,2.16-3.6l-6.84-63.72a6.186,6.186,0,0,0-6.12-5.4H1310.1a5.935,5.935,0,0,0-6.12,5.4l-7.2,63.72c-.36,2.16.36,3.6,2.16,3.6h3.24a3.646,3.646,0,0,0,3.24-2.16c9.72-27.72,21.96-47.88,46.08-47.88h5.04c10.8,0,12.6,4.32,12.96,14.04V334.08c-.36,9-2.16,12.96-13.32,16.2a3.136,3.136,0,0,0-2.16,2.88v3.6A3.227,3.227,0,0,0,1357.26,360ZM257.1,644h63.72a2.94,2.94,0,0,0,2.88-3.24v-3.6a2.85,2.85,0,0,0-1.8-2.88c-11.16-3.24-12.96-7.2-13.32-16.2V428.72c.36-9.72,2.16-14.04,12.96-14.04h5.04c24.12,0,36.36,20.16,46.08,47.88a3.646,3.646,0,0,0,3.24,2.16h2.88c2.16,0,2.52-1.44,2.16-3.6L374.1,397.4a6.186,6.186,0,0,0-6.12-5.4H209.94a5.935,5.935,0,0,0-6.12,5.4l-7.2,63.72c-.36,2.16.36,3.6,2.16,3.6h3.24a3.646,3.646,0,0,0,3.24-2.16c9.72-27.72,21.96-47.88,46.08-47.88h5.04c10.8,0,12.6,4.32,12.96,14.04V618.08c-.36,9-2.16,12.96-13.32,16.2a3.136,3.136,0,0,0-2.16,2.88v3.6A3.227,3.227,0,0,0,257.1,644Zm142.56,0h64.08a3.174,3.174,0,0,0,2.88-3.24v-3.6a2.737,2.737,0,0,0-2.16-2.88c-10.8-3.24-12.6-7.2-12.96-16.2V523.76h76.68v94.32c-.36,9-2.16,12.96-12.96,16.2a2.737,2.737,0,0,0-2.16,2.88v3.6a3.174,3.174,0,0,0,2.88,3.24h63.72a3.227,3.227,0,0,0,3.24-3.24v-3.6a3.136,3.136,0,0,0-2.16-2.88c-11.16-3.24-12.96-7.2-12.96-16.2V417.56c0-9,1.8-12.6,12.96-15.84a3.576,3.576,0,0,0,2.16-2.88v-3.96a3.174,3.174,0,0,0-3.24-2.88H515.94a3.1,3.1,0,0,0-2.88,2.88v3.96a3.016,3.016,0,0,0,2.16,2.88c10.8,3.24,12.6,6.84,12.96,15.84v83.52H451.5V417.56c.36-9,2.16-12.6,12.96-15.84a3.016,3.016,0,0,0,2.16-2.88v-3.96a3.1,3.1,0,0,0-2.88-2.88H399.66a3.1,3.1,0,0,0-2.88,2.88v3.96a3.016,3.016,0,0,0,2.16,2.88c10.8,3.24,12.96,6.84,12.96,15.84V618.08c0,9-2.16,12.96-12.96,16.2a2.737,2.737,0,0,0-2.16,2.88v3.6A3.174,3.174,0,0,0,399.66,644Zm203.76,0H738.78a6.222,6.222,0,0,0,6.12-5.4l10.08-64.08c.36-2.16-.36-3.6-2.52-3.6h-2.88c-1.44,0-2.52,1.08-3.24,2.52-9.36,27.72-25.2,47.88-49.32,47.88h-28.8c-10.8,0-12.6-4.68-12.96-14.04V525.56h32.76c17.64,0,24.12,13.68,28.44,28.44a3.136,3.136,0,0,0,2.88,2.16h2.16a3.226,3.226,0,0,0,3.24-3.24v-77.4a3.174,3.174,0,0,0-3.24-2.88h-2.16a2.737,2.737,0,0,0-2.88,2.16c-4.32,14.4-10.8,28.08-28.44,28.08H655.26V428.72c.36-9.72,2.16-14.04,12.96-14.04h19.8c24.12,0,39.6,20.16,49.32,47.88a3.148,3.148,0,0,0,3.24,2.16h3.24c1.8,0,2.16-1.44,2.16-3.6L735.9,397.4a6.286,6.286,0,0,0-6.48-5.4h-126a3.1,3.1,0,0,0-2.88,2.88v3.96a3.016,3.016,0,0,0,2.16,2.88c10.8,3.24,12.6,6.84,12.96,15.84V618.08c-.36,9-2.16,12.96-12.96,16.2a2.737,2.737,0,0,0-2.16,2.88v3.6A3.174,3.174,0,0,0,603.42,644Zm324.72,0h63.72a2.94,2.94,0,0,0,2.88-3.24v-3.6a2.85,2.85,0,0,0-1.8-2.88c-11.16-3.24-12.96-7.2-13.32-16.2V428.72c.36-9.72,2.16-14.04,12.96-14.04h5.04c24.12,0,36.36,20.16,46.08,47.88a3.646,3.646,0,0,0,3.24,2.16h2.88c2.16,0,2.52-1.44,2.16-3.6l-6.84-63.72a6.186,6.186,0,0,0-6.12-5.4H880.98a5.935,5.935,0,0,0-6.12,5.4l-7.2,63.72c-.36,2.16.36,3.6,2.16,3.6h3.24a3.646,3.646,0,0,0,3.24-2.16c9.72-27.72,21.96-47.88,46.08-47.88h5.04c10.8,0,12.6,4.32,12.96,14.04V618.08c-.36,9-2.16,12.96-13.32,16.2a3.136,3.136,0,0,0-2.16,2.88v3.6A3.226,3.226,0,0,0,928.14,644Zm142.56,0h135.36a6.222,6.222,0,0,0,6.12-5.4l10.08-64.08c.36-2.16-.36-3.6-2.52-3.6h-2.88c-1.44,0-2.52,1.08-3.24,2.52-9.36,27.72-25.2,47.88-49.32,47.88h-28.8c-10.8,0-12.6-4.68-12.96-14.04V525.56h32.76c17.64,0,24.12,13.68,28.44,28.44a3.136,3.136,0,0,0,2.88,2.16h2.16a3.226,3.226,0,0,0,3.24-3.24v-77.4a3.174,3.174,0,0,0-3.24-2.88h-2.16a2.738,2.738,0,0,0-2.88,2.16c-4.32,14.4-10.8,28.08-28.44,28.08h-32.76V428.72c.36-9.72,2.16-14.04,12.96-14.04h19.8c24.12,0,39.6,20.16,49.32,47.88a3.149,3.149,0,0,0,3.24,2.16h3.24c1.8,0,2.16-1.44,2.16-3.6l-10.08-63.72a6.286,6.286,0,0,0-6.48-5.4h-126a3.1,3.1,0,0,0-2.88,2.88v3.96a3.016,3.016,0,0,0,2.16,2.88c10.8,3.24,12.6,6.84,12.96,15.84V618.08c-.36,9-2.16,12.96-12.96,16.2a2.737,2.737,0,0,0-2.16,2.88v3.6A3.174,3.174,0,0,0,1070.7,644Zm300.24,5.4c33.12,0,55.08-6.84,74.16-19.08a7.444,7.444,0,0,0,3.6-5.04c1.08-14.76,5.4-50.4,5.76-52.56.36-1.8-1.08-2.52-2.52-2.52h-2.88a2.707,2.707,0,0,0-2.52,1.8c-12.24,27.72-29.52,59.04-75.6,59.04-55.8,0-95.76-48.96-95.76-113.04,0-64.44,36.72-113.04,92.52-113.04,38.16,0,61.92,33.84,74.16,61.92a2.707,2.707,0,0,0,2.52,1.8h3.24c1.44,0,2.52-.72,2.16-2.88,0-1.8-3.6-36.36-5.4-53.28a11.126,11.126,0,0,0-5.4-7.92c-19.08-11.88-46.08-18-71.28-18-78.84,0-135,52.56-135,131.4S1291.74,649.4,1370.94,649.4Zm102.24-5.4h64.08a3.174,3.174,0,0,0,2.88-3.24v-3.6a2.737,2.737,0,0,0-2.16-2.88c-10.8-3.24-12.6-7.2-12.96-16.2V523.76h76.68v94.32c-.36,9-2.16,12.96-12.96,16.2a2.737,2.737,0,0,0-2.16,2.88v3.6a3.174,3.174,0,0,0,2.88,3.24h63.72a3.227,3.227,0,0,0,3.24-3.24v-3.6a3.136,3.136,0,0,0-2.16-2.88c-11.16-3.24-12.96-7.2-12.96-16.2V417.56c0-9,1.8-12.6,12.96-15.84a3.576,3.576,0,0,0,2.16-2.88v-3.96a3.174,3.174,0,0,0-3.24-2.88h-63.72a3.1,3.1,0,0,0-2.88,2.88v3.96a3.016,3.016,0,0,0,2.16,2.88c10.8,3.24,12.6,6.84,12.96,15.84v83.52h-76.68V417.56c.36-9,2.16-12.6,12.96-15.84a3.016,3.016,0,0,0,2.16-2.88v-3.96a3.1,3.1,0,0,0-2.88-2.88h-64.08a3.1,3.1,0,0,0-2.88,2.88v3.96a3.016,3.016,0,0,0,2.16,2.88c10.8,3.24,12.96,6.84,12.96,15.84V618.08c0,9-2.16,12.96-12.96,16.2a2.737,2.737,0,0,0-2.16,2.88v3.6A3.174,3.174,0,0,0,1473.18,644Zm228.24,5.4a21.818,21.818,0,0,0,21.96-21.96,21.963,21.963,0,1,0-43.92,0A21.818,21.818,0,0,0,1701.42,649.4Z" transform="translate(-196.53 -102.6)" fill="#faf3e4"/>
</svg>
